<?xml version="1.0" standalone="no"?>
<!DOCTYPE svg PUBLIC "-//W3C//DTD SVG 1.1//EN" "http://www.w3.org/Graphics/SVG/1.1/DTD/svg11.dtd" >
<svg xmlns="http://www.w3.org/2000/svg">
<metadata></metadata>
<defs>
<font id="pixelmazregularregular" horiz-adv-x="640" >
<font-face units-per-em="2048" ascent="1638" descent="-410" />
<missing-glyph horiz-adv-x="256" />
<glyph horiz-adv-x="0" />
<glyph horiz-adv-x="0" />
<glyph unicode="&#xd;" horiz-adv-x="256" />
<glyph unicode=" "  horiz-adv-x="256" />
<glyph unicode="&#x09;" horiz-adv-x="256" />
<glyph unicode="&#xa0;" horiz-adv-x="256" />
<glyph unicode="!" horiz-adv-x="256" d="M0 0v128h128v-128h-128zM0 256v512h128v-512h-128z" />
<glyph unicode="&#x22;" horiz-adv-x="512" d="M0 512v256h128v-256h-128zM256 512v256h128v-256h-128z" />
<glyph unicode="#" horiz-adv-x="768" d="M0 128v128h128v128h-128v128h128v128h128v-128h128v128h128v-128h128v-128h-128v-128h128v-128h-128v-128h-128v128h-128v-128h-128v128h-128zM256 256h128v128h-128v-128z" />
<glyph unicode="$" horiz-adv-x="768" d="M0 128v128h256v128h-128v128h128v128h-128v128h128v128h128v-128h256v-128h-256v-128h128v-128h-128v-128h128v-128h-128v-128h-128v128h-256zM0 512v128h128v-128h-128zM512 256v128h128v-128h-128z" />
<glyph unicode="%" horiz-adv-x="768" d="M0 0v128h128v-128h-128zM128 128v128h128v-128h-128zM128 512v128h128v-128h-128zM256 256v128h128v-128h-128zM384 0v128h128v-128h-128zM384 384v128h128v-128h-128zM512 512v128h128v-128h-128z" />
<glyph unicode="&#x26;" horiz-adv-x="896" d="M0 128v256h128v-256h-128zM0 512v128h128v-128h-128zM128 0v128h256v-128h-256zM128 384v128h256v-128h-256zM128 640v128h256v-128h-256zM384 128v256h256v-128h-128v-128h-128zM384 512v128h128v-128h-128zM512 0v128h256v-128h-256zM640 384v128h128v-128h-128z" />
<glyph unicode="'" horiz-adv-x="256" d="M0 512v256h128v-256h-128z" />
<glyph unicode="(" horiz-adv-x="384" d="M0 128v512h128v-512h-128zM128 0v128h128v-128h-128zM128 640v128h128v-128h-128z" />
<glyph unicode=")" horiz-adv-x="384" d="M0 0v128h128v-128h-128zM0 640v128h128v-128h-128zM128 128v512h128v-512h-128z" />
<glyph unicode="*" horiz-adv-x="768" d="M0 768v128h256v128h128v-128h256v-128h-128v-256h-128v128h-128v-128h-128v256h-128z" />
<glyph unicode="+" horiz-adv-x="768" d="M0 256v128h256v256h128v-256h256v-128h-256v-256h-128v256h-256z" />
<glyph unicode="," horiz-adv-x="256" d="M-128 -128l128 128v128h128v-128l-128 -128h-128z" />
<glyph unicode="-" d="M0 256v128h512v-128h-512z" />
<glyph unicode="." horiz-adv-x="256" d="M0 0v128h128v-128h-128z" />
<glyph unicode="/" d="M0 0v128h128v-128h-128zM128 128v256h128v-256h-128zM256 384v256h128v-256h-128zM384 640v128h128v-128h-128z" />
<glyph unicode="0" d="M0 128v384h128v-384h-128zM128 0v128h256v-128h-256zM128 512v128h256v-128h-256zM384 128v384h128v-384h-128z" />
<glyph unicode="1" horiz-adv-x="384" d="M0 512v128h256v-640h-128v512h-128z" />
<glyph unicode="2" d="M0 0v128h128v128h128v-128h256v-128h-512zM0 384v128h128v-128h-128zM128 512v128h256v-128h-256zM256 256v128h128v-128h-128zM384 384v128h128v-128h-128z" />
<glyph unicode="3" horiz-adv-x="512" d="M0 0v128h256v-128h-256zM0 512v128h256v-128h-256zM128 256v128h128v-128h-128zM256 128v128h128v-128h-128zM256 384v128h128v-128h-128z" />
<glyph unicode="4" d="M0 128v512h128v-384h128v128h128v-128h128v-128h-128v-128h-128v128h-256z" />
<glyph unicode="5" d="M0 0v128h384v-128h-384zM0 384v256h384v-128h-256v-128h-128zM128 256v128h256v-128h-256zM384 128v128h128v-128h-128z" />
<glyph unicode="6" d="M0 128v384h128v-128h256v-128h-256v-128h-128zM128 0v128h256v-128h-256zM128 512v128h256v-128h-256zM384 128v128h128v-128h-128z" />
<glyph unicode="7" horiz-adv-x="512" d="M0 0v128h128v-128h-128zM0 512v128h384v-256h-128v128h-256zM128 128v256h128v-256h-128z" />
<glyph unicode="8" d="M0 128v128h128v-128h-128zM0 384v128h128v-128h-128zM128 0v128h256v-128h-256zM128 256v128h256v-128h-256zM128 512v128h256v-128h-256zM384 128v128h128v-128h-128zM384 384v128h128v-128h-128z" />
<glyph unicode="9" d="M0 384v128h128v-128h-128zM128 0v128h256v-128h-256zM128 256v128h256v128h128v-384h-128v128h-256zM128 512v128h256v-128h-256z" />
<glyph unicode=":" horiz-adv-x="256" d="M0 128v128h128v-128h-128zM0 384v128h128v-128h-128z" />
<glyph unicode=";" horiz-adv-x="256" d="M0 -128v256h128v-128zM0 256v128h128v-128h-128z" />
<glyph unicode="&#x3c;" horiz-adv-x="512" d="M0 256v128h128v-128h-128zM128 128v128h128v-128h-128zM128 384v128h128v-128h-128zM256 0v128h128v-128h-128zM256 512v128h128v-128h-128z" />
<glyph unicode="=" horiz-adv-x="512" d="M0 128v128h384v-128h-384zM0 384v128h384v-128h-384z" />
<glyph unicode="&#x3e;" horiz-adv-x="512" d="M0 0v128h128v-128h-128zM0 512v128h128v-128h-128zM128 128v128h128v-128h-128zM128 384v128h128v-128h-128zM256 256v128h128v-128h-128z" />
<glyph unicode="?" d="M0 512v128h128v-128h-128zM128 0v128h128v-128h-128zM128 256v128h128v-128h-128zM128 640v128h256v-128h-256zM256 384v128h128v-128h-128zM384 512v128h128v-128h-128z" />
<glyph unicode="@" horiz-adv-x="1024" d="M0 256v512h128v-512h-128zM128 128v128h128v-128h-128zM128 768v128h128v-128h-128zM256 0v128h512v-128h-512zM256 384v256h128v-256h-128zM256 896v128h384v-128h-384zM384 256v128h128v-128h-128zM384 640v128h128v-128h-128zM512 384v256h128v-256h-128zM640 256v128 h128v-128h-128zM640 768v128h128v-128h-128zM768 384v384h128v-384h-128z" />
<glyph unicode="A" d="M0 0v512h128v-256h256v256h128v-512h-128v128h-256v-128h-128zM128 512v128h256v-128h-256z" />
<glyph unicode="B" d="M0 0v640h384v-128h-256v-128h256v-128h-256v-128h256v-128h-384zM384 128v128h128v-128h-128zM384 384v128h128v-128h-128z" />
<glyph unicode="C" horiz-adv-x="512" d="M0 128v384h128v-384h-128zM128 0v128h256v-128h-256zM128 512v128h256v-128h-256z" />
<glyph unicode="D" d="M0 0v640h384v-128h-256v-384h256v-128h-384zM384 128v384h128v-384h-128z" />
<glyph unicode="E" horiz-adv-x="512" d="M0 0v640h384v-128h-256v-128h128v-128h-128v-128h256v-128h-384z" />
<glyph unicode="F" horiz-adv-x="512" d="M0 0v640h384v-128h-256v-128h128v-128h-128v-256h-128z" />
<glyph unicode="G" d="M0 128v384h128v-384h-128zM128 0v128h256v128h-128v128h256v-384h-384zM128 512v128h384v-128h-384z" />
<glyph unicode="H" d="M0 0v640h128v-256h256v256h128v-640h-128v256h-256v-256h-128z" />
<glyph unicode="I" horiz-adv-x="512" d="M0 0v128h128v384h-128v128h384v-128h-128v-384h128v-128h-384z" />
<glyph unicode="J" d="M0 128v128h128v-128h-128zM0 512v128h512v-128h-128v-384h-128v384h-256zM128 0v128h128v-128h-128z" />
<glyph unicode="K" d="M0 0v640h128v-256h128v-128h-128v-256h-128zM256 128v128h128v-128h-128zM256 384v128h128v-128h-128zM384 0v128h128v-128h-128zM384 512v128h128v-128h-128z" />
<glyph unicode="L" horiz-adv-x="512" d="M0 0v640h128v-512h256v-128h-384z" />
<glyph unicode="M" horiz-adv-x="768" d="M0 0v640h256v-128h-128v-512h-128zM256 256v256h128v-256h-128zM384 512v128h256v-640h-128v512h-128z" />
<glyph unicode="N" d="M0 0v640h128v-128h128v-128h-128v-384h-128zM256 256v128h128v256h128v-640h-128v256h-128z" />
<glyph unicode="O" d="M0 128v384h128v-384h-128zM128 0v128h256v-128h-256zM128 512v128h256v-128h-256zM384 128v384h128v-384h-128z" />
<glyph unicode="P" d="M0 0v640h384v-128h-256v-256h256v-128h-256v-128h-128zM384 256v256h128v-256h-128z" />
<glyph unicode="Q" d="M0 128v384h128v-384h-128zM128 0v128h128v128h128v256h128v-512h-384zM128 512v128h256v-128h-256z" />
<glyph unicode="R" d="M0 0v640h384v-128h-256v-256h256v-128h-256v-128h-128zM384 0v128h128v-128h-128zM384 256v256h128v-256h-128z" />
<glyph unicode="S" d="M0 0v128h384v-128h-384zM0 384v128h128v-128h-128zM128 256v128h256v-128h-256zM128 512v128h384v-128h-384zM384 128v128h128v-128h-128z" />
<glyph unicode="T" horiz-adv-x="512" d="M0 512v128h384v-128h-128v-512h-128v512h-128z" />
<glyph unicode="U" d="M0 128v512h128v-512h-128zM128 0v128h256v-128h-256zM384 128v512h128v-512h-128z" />
<glyph unicode="V" horiz-adv-x="768" d="M0 384v256h128v-256h-128zM128 128v256h128v-256h-128zM256 0v128h128v-128h-128zM384 128v256h128v-256h-128zM512 384v256h128v-256h-128z" />
<glyph unicode="W" horiz-adv-x="768" d="M0 128v512h128v-512h-128zM128 0v128h128v256h128v-256h128v-128h-384zM512 128v512h128v-512h-128z" />
<glyph unicode="X" horiz-adv-x="768" d="M0 0v128h128v-128h-128zM0 512v128h128v-128h-128zM128 128v128h128v-128h-128zM128 384v128h128v-128h-128zM256 256v128h128v-128h-128zM384 128v128h128v-128h-128zM384 384v128h128v-128h-128zM512 0v128h128v-128h-128zM512 512v128h128v-128h-128z" />
<glyph unicode="Y" horiz-adv-x="768" d="M0 512v128h128v-128h-128zM128 256v256h128v-256h-128zM256 0v256h128v-256h-128zM384 256v256h128v-256h-128zM512 512v128h128v-128h-128z" />
<glyph unicode="Z" d="M0 0v128h128v128h128v-128h256v-128h-512zM0 512v128h512v-256h-128v128h-384zM256 256v128h128v-128h-128z" />
<glyph unicode="[" horiz-adv-x="384" d="M0 0v768h256v-128h-128v-512h128v-128h-256z" />
<glyph unicode="\" d="M0 640v128h128v-128h-128zM128 384v256h128v-256h-128zM256 128v256h128v-256h-128zM384 0v128h128v-128h-128z" />
<glyph unicode="]" horiz-adv-x="384" d="M0 0v128h128v512h-128v128h256v-768h-256z" />
<glyph unicode="^" horiz-adv-x="512" d="M0 384v128h128v-128h-128zM128 512v128h128v-128h-128zM256 384v128h128v-128h-128z" />
<glyph unicode="_" horiz-adv-x="512" d="M0 0v128h384v-128h-384z" />
<glyph unicode="`" horiz-adv-x="384" d="M0 768h128l128 -128v-128l-128 128z" />
<glyph unicode="a" horiz-adv-x="768" d="M0 128v256h128v-256h-128zM128 0v128h256v-128h-256zM128 384v128h256v-128h-256zM384 128v256h128v-256h-128zM512 0v128h128v-128h-128z" />
<glyph unicode="b" d="M0 0v640h128v-128h256v-128h-256v-256h256v-128h-384zM384 128v256h128v-256h-128z" />
<glyph unicode="c" horiz-adv-x="512" d="M0 128v256h128v-256h-128zM128 0v128h256v-128h-256zM128 384v128h256v-128h-256z" />
<glyph unicode="d" d="M0 128v256h128v-256h-128zM128 0v128h256v256h-256v128h256v128h128v-640h-384z" />
<glyph unicode="e" d="M0 128v256h128v-128h256v-128h128v-128h-384v128h-128zM128 384v128h256v-128h-256zM384 256v128h128v-128h-128z" />
<glyph unicode="f" horiz-adv-x="512" d="M0 256v128h128v128h128v-128h128v-128h-128v-256h-128v256h-128zM256 512v128h128v-128h-128z" />
<glyph unicode="g" d="M0 -128h128v-128h-128v128zM0 128v256h128v-256h-128zM128 0v128h256v256h128v-640h-128v256h-256zM128 -256h256v-128h-256v128zM128 384v128h256v-128h-256z" />
<glyph unicode="h" d="M0 0v640h128v-128h256v-128h-256v-384h-128zM384 0v384h128v-384h-128z" />
<glyph unicode="i" horiz-adv-x="256" d="M0 0v384h128v-384h-128zM0 512v128h128v-128h-128z" />
<glyph unicode="j" horiz-adv-x="256" d="M-128 -128h128v-128h-128v128zM0 -128v512h128v-512h-128zM0 512v128h128v-128h-128z" />
<glyph unicode="k" horiz-adv-x="512" d="M0 0v640h128v-256h128v-128h-128v-256h-128zM256 0v256h128v-256h-128zM256 384v256h128v-256h-128z" />
<glyph unicode="l" horiz-adv-x="384" d="M0 128v512h128v-512h-128zM128 0v128h128v-128h-128z" />
<glyph unicode="m" horiz-adv-x="768" d="M0 0v512h256v-128h-128v-384h-128zM256 128v256h128v-256h-128zM384 384v128h256v-512h-128v384h-128z" />
<glyph unicode="n" d="M0 0v512h384v-128h-256v-384h-128zM384 0v384h128v-384h-128z" />
<glyph unicode="o" d="M0 128v256h128v-256h-128zM128 0v128h256v-128h-256zM128 384v128h256v-128h-256zM384 128v256h128v-256h-128z" />
<glyph unicode="p" d="M0 -384v896h384v-128h-256v-256h256v-128h-256v-384h-128zM384 128v256h128v-256h-128z" />
<glyph unicode="q" horiz-adv-x="768" d="M0 128v256h128v-256h-128zM128 0v128h256v256h128v-512h128v-128h-128v-128h-128v384h-256zM128 384v128h256v-128h-256z" />
<glyph unicode="r" d="M0 0v512h128v-128h128v-128h-128v-256h-128zM256 384v128h256v-128h-256z" />
<glyph unicode="s" horiz-adv-x="512" d="M0 0v128h256v-128h-256zM0 256v128h128v128h256v-128h-128v-128h-256zM256 128v128h128v-128h-128z" />
<glyph unicode="t" horiz-adv-x="512" d="M0 384v128h128v128h128v-128h128v-128h-128v-256h-128v256h-128zM256 0v128h128v-128h-128z" />
<glyph unicode="u" horiz-adv-x="768" d="M0 128v384h128v-384h-128zM128 0v128h256v-128h-256zM384 128v384h128v-384h-128zM512 0v128h128v-128h-128z" />
<glyph unicode="v" horiz-adv-x="512" d="M0 128v384h128v-384h-128zM128 0v128h128v-128h-128zM256 128v384h128v-384h-128z" />
<glyph unicode="w" horiz-adv-x="768" d="M0 128v384h128v-384h-128zM128 0v128h128v-128h-128zM256 128v256h128v-256h-128zM384 0v128h128v-128h-128zM512 128v384h128v-384h-128z" />
<glyph unicode="x" horiz-adv-x="512" d="M0 0v256h128v-256h-128zM0 384v128h128v-128h-128zM128 256v128h128v-128h-128zM256 0v256h128v-256h-128zM256 384v128h128v-128h-128z" />
<glyph unicode="y" d="M0 -128h128v-128h-128v128zM0 128v384h128v-384h-128zM128 0v128h256v384h128v-768h-128v256h-256zM128 -256h256v-128h-256v128z" />
<glyph unicode="z" d="M0 0v128h128v128h128v-128h128v-128h-384zM0 -128h128v-128h-128v128zM0 384v128h512v-128h-128v-128h-128v128h-256zM128 -256h256v-128h-256v128zM384 0h128v-256h-128v256z" />
<glyph unicode="{" horiz-adv-x="512" d="M0 384v128h128v-128h-128zM128 128v256h128v-256h-128zM128 512v256h128v-256h-128zM256 0v128h128v-128h-128zM256 768v128h128v-128h-128z" />
<glyph unicode="|" horiz-adv-x="384" d="M128 0v896h128v-896h-128z" />
<glyph unicode="}" horiz-adv-x="512" d="M0 0v128h128v-128h-128zM0 768v128h128v-128h-128zM128 128v256h128v-256h-128zM128 512v256h128v-256h-128zM256 384v128h128v-128h-128z" />
<glyph unicode="~" horiz-adv-x="768" d="M0 384v128h128v-128h-128zM128 512v128h128v-128h-128zM256 384v128h128v-128h-128zM384 256v128h128v-128h-128zM512 384v128h128v-128h-128z" />
<glyph unicode="&#xa3;" d="M0 0v128h128v128h-128v128h128v128h128v-128h128v-128h-128v-128h256v-128h-512zM256 512v128h256v-128h-256z" />
<glyph unicode="&#xad;" d="M0 256v128h512v-128h-512z" />
<glyph unicode="&#xd7;" horiz-adv-x="768" d="M0 0v128h128v-128h-128zM0 512v128h128v-128h-128zM128 128v128h128v-128h-128zM128 384v128h128v-128h-128zM256 256v128h128v-128h-128zM384 128v128h128v-128h-128zM384 384v128h128v-128h-128zM512 0v128h128v-128h-128zM512 512v128h128v-128h-128z" />
<glyph unicode="&#xf7;" horiz-adv-x="768" d="M0 256v128h640v-128h-640zM256 0v128h128v-128h-128zM256 512v128h128v-128h-128z" />
<glyph unicode="&#x2000;" horiz-adv-x="682" />
<glyph unicode="&#x2001;" horiz-adv-x="1365" />
<glyph unicode="&#x2002;" horiz-adv-x="682" />
<glyph unicode="&#x2003;" horiz-adv-x="1365" />
<glyph unicode="&#x2004;" horiz-adv-x="455" />
<glyph unicode="&#x2005;" horiz-adv-x="341" />
<glyph unicode="&#x2006;" horiz-adv-x="227" />
<glyph unicode="&#x2007;" horiz-adv-x="227" />
<glyph unicode="&#x2008;" horiz-adv-x="170" />
<glyph unicode="&#x2009;" horiz-adv-x="273" />
<glyph unicode="&#x200a;" horiz-adv-x="75" />
<glyph unicode="&#x2010;" d="M0 256v128h512v-128h-512z" />
<glyph unicode="&#x2011;" d="M0 256v128h512v-128h-512z" />
<glyph unicode="&#x2012;" d="M0 256v128h512v-128h-512z" />
<glyph unicode="&#x2013;" horiz-adv-x="1152" d="M0 256v128h1024v-128h-1024z" />
<glyph unicode="&#x2014;" horiz-adv-x="2176" d="M0 256v128h2048v-128h-2048z" />
<glyph unicode="&#x2018;" horiz-adv-x="256" d="M0 512v128l128 128v-256h-128z" />
<glyph unicode="&#x2019;" horiz-adv-x="256" d="M0 512v256h128v-128z" />
<glyph unicode="&#x201c;" horiz-adv-x="512" d="M0 640v128h128v-256zM256 640v128h128v-256z" />
<glyph unicode="&#x201d;" horiz-adv-x="512" d="M0 512v256h128v-128zM256 512v256h128v-128z" />
<glyph unicode="&#x202f;" horiz-adv-x="273" />
<glyph unicode="&#x205f;" horiz-adv-x="341" />
<glyph unicode="&#x25fc;" horiz-adv-x="510" d="M0 0v510h510v-510h-510z" />
</font>
</defs>
</svg>
